<svg id="visual" viewBox="0 0 2560 1400" width="2560" height="1400" xmlns="http://www.w3.org/2000/svg" xmlns:xlink="http://www.w3.org/1999/xlink" version="1.1"><rect x="0" y="0" width="2560" height="1400" fill="#0066FF"></rect><defs><linearGradient id="grad1_0" x1="45.3%" y1="0%" x2="100%" y2="100%"><stop offset="13.428571428571429%" stop-color="#888277" stop-opacity="1"></stop><stop offset="86.57142857142857%" stop-color="#888277" stop-opacity="1"></stop></linearGradient></defs><defs><linearGradient id="grad1_1" x1="45.3%" y1="0%" x2="100%" y2="100%"><stop offset="13.428571428571429%" stop-color="#888277" stop-opacity="1"></stop><stop offset="86.57142857142857%" stop-color="#977b63" stop-opacity="1"></stop></linearGradient></defs><defs><linearGradient id="grad1_2" x1="45.3%" y1="0%" x2="100%" y2="100%"><stop offset="13.428571428571429%" stop-color="#ac6f5b" stop-opacity="1"></stop><stop offset="86.57142857142857%" stop-color="#977b63" stop-opacity="1"></stop></linearGradient></defs><defs><linearGradient id="grad1_3" x1="45.3%" y1="0%" x2="100%" y2="100%"><stop offset="13.428571428571429%" stop-color="#ac6f5b" stop-opacity="1"></stop><stop offset="86.57142857142857%" stop-color="#be5e63" stop-opacity="1"></stop></linearGradient></defs><defs><linearGradient id="grad1_4" x1="45.3%" y1="0%" x2="100%" y2="100%"><stop offset="13.428571428571429%" stop-color="#c94c7c" stop-opacity="1"></stop><stop offset="86.57142857142857%" stop-color="#be5e63" stop-opacity="1"></stop></linearGradient></defs><defs><linearGradient id="grad1_5" x1="45.3%" y1="0%" x2="100%" y2="100%"><stop offset="13.428571428571429%" stop-color="#c94c7c" stop-opacity="1"></stop><stop offset="86.57142857142857%" stop-color="#c343a2" stop-opacity="1"></stop></linearGradient></defs><defs><linearGradient id="grad1_6" x1="45.3%" y1="0%" x2="100%" y2="100%"><stop offset="13.428571428571429%" stop-color="#9e4fd2" stop-opacity="1"></stop><stop offset="86.57142857142857%" stop-color="#c343a2" stop-opacity="1"></stop></linearGradient></defs><defs><linearGradient id="grad1_7" x1="45.3%" y1="0%" x2="100%" y2="100%"><stop offset="13.428571428571429%" stop-color="#9e4fd2" stop-opacity="1"></stop><stop offset="86.57142857142857%" stop-color="#0066ff" stop-opacity="1"></stop></linearGradient></defs><defs><linearGradient id="grad2_0" x1="0%" y1="0%" x2="54.7%" y2="100%"><stop offset="13.428571428571429%" stop-color="#888277" stop-opacity="1"></stop><stop offset="86.57142857142857%" stop-color="#888277" stop-opacity="1"></stop></linearGradient></defs><defs><linearGradient id="grad2_1" x1="0%" y1="0%" x2="54.7%" y2="100%"><stop offset="13.428571428571429%" stop-color="#977b63" stop-opacity="1"></stop><stop offset="86.57142857142857%" stop-color="#888277" stop-opacity="1"></stop></linearGradient></defs><defs><linearGradient id="grad2_2" x1="0%" y1="0%" x2="54.7%" y2="100%"><stop offset="13.428571428571429%" stop-color="#977b63" stop-opacity="1"></stop><stop offset="86.57142857142857%" stop-color="#ac6f5b" stop-opacity="1"></stop></linearGradient></defs><defs><linearGradient id="grad2_3" x1="0%" y1="0%" x2="54.7%" y2="100%"><stop offset="13.428571428571429%" stop-color="#be5e63" stop-opacity="1"></stop><stop offset="86.57142857142857%" stop-color="#ac6f5b" stop-opacity="1"></stop></linearGradient></defs><defs><linearGradient id="grad2_4" x1="0%" y1="0%" x2="54.7%" y2="100%"><stop offset="13.428571428571429%" stop-color="#be5e63" stop-opacity="1"></stop><stop offset="86.57142857142857%" stop-color="#c94c7c" stop-opacity="1"></stop></linearGradient></defs><defs><linearGradient id="grad2_5" x1="0%" y1="0%" x2="54.7%" y2="100%"><stop offset="13.428571428571429%" stop-color="#c343a2" stop-opacity="1"></stop><stop offset="86.57142857142857%" stop-color="#c94c7c" stop-opacity="1"></stop></linearGradient></defs><defs><linearGradient id="grad2_6" x1="0%" y1="0%" x2="54.7%" y2="100%"><stop offset="13.428571428571429%" stop-color="#c343a2" stop-opacity="1"></stop><stop offset="86.57142857142857%" stop-color="#9e4fd2" stop-opacity="1"></stop></linearGradient></defs><defs><linearGradient id="grad2_7" x1="0%" y1="0%" x2="54.7%" y2="100%"><stop offset="13.428571428571429%" stop-color="#0066ff" stop-opacity="1"></stop><stop offset="86.57142857142857%" stop-color="#9e4fd2" stop-opacity="1"></stop></linearGradient></defs><g transform="translate(2560, 0)"><path d="M0 1330C-93.3 1291.9 -186.6 1253.7 -279 1222.6C-371.4 1191.4 -462.9 1167.3 -536.3 1113.6C-609.6 1059.9 -664.9 976.7 -729.5 914.7C-794.1 852.8 -868.1 812 -957.7 763.8C-1047.4 715.6 -1152.6 659.9 -1198.3 577.1C-1244 494.2 -1230 384.2 -1242.1 283.5C-1254.1 182.8 -1292 91.4 -1330 0L0 0Z" fill="#775ae9"></path><path d="M0 1163.8C-81.7 1130.4 -163.3 1097 -244.2 1069.7C-325 1042.5 -405.1 1021.4 -469.2 974.4C-533.4 927.4 -581.8 854.6 -638.3 800.4C-694.8 746.2 -759.6 710.5 -838 668.3C-916.5 626.1 -1008.5 577.4 -1048.5 504.9C-1088.5 432.4 -1076.3 336.2 -1086.8 248.1C-1097.3 159.9 -1130.5 80 -1163.7 0L0 0Z" fill="#b547ba"></path><path d="M0 997.5C-70 968.9 -140 940.3 -209.3 916.9C-278.6 893.6 -347.2 875.5 -402.2 835.2C-457.2 794.9 -498.6 732.5 -547.1 686.1C-595.6 639.6 -651.1 609 -718.3 572.8C-785.5 536.7 -864.5 494.9 -898.7 432.8C-933 370.7 -922.5 288.1 -931.5 212.6C-940.6 137.1 -969 68.5 -997.5 0L0 0Z" fill="#c9468e"></path><path d="M0 831.3C-58.3 807.4 -116.6 783.6 -174.4 764.1C-232.2 744.6 -289.3 729.5 -335.2 696C-381 662.5 -415.5 610.5 -455.9 571.7C-496.3 533 -542.6 507.5 -598.6 477.4C-654.6 447.2 -720.4 412.4 -748.9 360.7C-777.5 308.9 -768.8 240.1 -776.3 177.2C-783.8 114.2 -807.5 57.1 -831.2 0L0 0Z" fill="#c5556d"></path><path d="M0 665C-46.7 645.9 -93.3 626.9 -139.5 611.3C-185.7 595.7 -231.5 583.6 -268.1 556.8C-304.8 530 -332.4 488.4 -364.7 457.4C-397.1 426.4 -434.1 406 -478.9 381.9C-523.7 357.8 -576.3 330 -599.1 288.5C-622 247.1 -615 192.1 -621 141.7C-627 91.4 -646 45.7 -665 0L0 0Z" fill="#b6675d"></path><path d="M0 498.8C-35 484.4 -70 470.1 -104.6 458.5C-139.3 446.8 -173.6 437.7 -201.1 417.6C-228.6 397.5 -249.3 366.3 -273.6 343C-297.8 319.8 -325.5 304.5 -359.2 286.4C-392.8 268.3 -432.2 247.5 -449.4 216.4C-466.5 185.3 -461.3 144.1 -465.8 106.3C-470.3 68.5 -484.5 34.3 -498.7 0L0 0Z" fill="#a1755d"></path><path d="M0 332.5C-23.3 323 -46.7 313.4 -69.8 305.6C-92.9 297.9 -115.7 291.8 -134.1 278.4C-152.4 265 -166.2 244.2 -182.4 228.7C-198.5 213.2 -217 203 -239.4 190.9C-261.8 178.9 -288.2 165 -299.6 144.3C-311 123.6 -307.5 96 -310.5 70.9C-313.5 45.7 -323 22.8 -332.5 0L0 0Z" fill="#8f7f6c"></path><path d="M0 166.3C-11.7 161.5 -23.3 156.7 -34.9 152.8C-46.4 148.9 -57.9 145.9 -67 139.2C-76.2 132.5 -83.1 122.1 -91.2 114.3C-99.3 106.6 -108.5 101.5 -119.7 95.5C-130.9 89.4 -144.1 82.5 -149.8 72.1C-155.5 61.8 -153.8 48 -155.3 35.4C-156.8 22.8 -161.5 11.4 -166.2 0L0 0Z" fill="#888277"></path></g><g transform="translate(0, 1400)"><path d="M0 -1330C92.2 -1279.3 184.5 -1228.7 273.9 -1200.1C363.4 -1171.6 450 -1165.2 555.8 -1154.1C661.6 -1143.1 786.5 -1127.3 829.2 -1039.8C872 -952.3 832.6 -793 892.1 -711.4C951.6 -629.8 1110 -625.8 1167.7 -562.3C1225.3 -498.8 1182.1 -375.8 1192.3 -272.1C1202.6 -168.5 1266.3 -84.3 1330 0L0 0Z" fill="#775ae9"></path><path d="M0 -1163.7C80.7 -1119.4 161.4 -1075.1 239.7 -1050.1C317.9 -1025.2 393.8 -1019.6 486.3 -1009.9C578.9 -1000.2 688.2 -986.4 725.6 -909.9C763 -833.3 728.5 -693.9 780.6 -622.5C832.6 -551.1 971.3 -547.6 1021.7 -492C1072.1 -436.5 1034.3 -328.8 1043.3 -238.1C1052.3 -147.4 1108 -73.7 1163.8 0L0 0Z" fill="#b547ba"></path><path d="M0 -997.5C69.2 -959.5 138.4 -921.5 205.4 -900.1C272.5 -878.7 337.5 -873.9 416.9 -865.6C496.2 -857.3 589.9 -845.5 621.9 -779.9C654 -714.2 624.4 -594.8 669.1 -533.6C713.7 -472.3 832.5 -469.4 875.7 -421.7C919 -374.1 886.6 -281.8 894.3 -204.1C901.9 -126.4 949.7 -63.2 997.5 0L0 0Z" fill="#c9468e"></path><path d="M0 -831.2C57.6 -799.6 115.3 -767.9 171.2 -750.1C227.1 -732.3 281.3 -728.3 347.4 -721.3C413.5 -714.4 491.6 -704.6 518.3 -649.9C545 -595.2 520.3 -495.6 557.5 -444.6C594.7 -393.6 693.8 -391.1 729.8 -351.4C765.8 -311.8 738.8 -234.9 745.2 -170.1C751.6 -105.3 791.4 -52.7 831.3 0L0 0Z" fill="#c5556d"></path><path d="M0 -665C46.1 -639.7 92.2 -614.3 137 -600.1C181.7 -585.8 225 -582.6 277.9 -577.1C330.8 -571.5 393.2 -563.7 414.6 -519.9C436 -476.2 416.3 -396.5 446 -355.7C475.8 -314.9 555 -312.9 583.8 -281.2C612.6 -249.4 591 -187.9 596.2 -136.1C601.3 -84.3 633.1 -42.1 665 0L0 0Z" fill="#b6675d"></path><path d="M0 -498.7C34.6 -479.8 69.2 -460.8 102.7 -450.1C136.3 -439.4 168.8 -437 208.4 -432.8C248.1 -428.7 294.9 -422.8 311 -389.9C327 -357.1 312.2 -297.4 334.5 -266.8C356.8 -236.2 416.3 -234.7 437.9 -210.9C459.5 -187.1 443.3 -140.9 447.1 -102.1C451 -63.2 474.9 -31.6 498.8 0L0 0Z" fill="#a1755d"></path><path d="M0 -332.5C23.1 -319.8 46.1 -307.2 68.5 -300C90.8 -292.9 112.5 -291.3 139 -288.5C165.4 -285.8 196.6 -281.8 207.3 -260C218 -238.1 208.1 -198.3 223 -177.9C237.9 -157.4 277.5 -156.5 291.9 -140.6C306.3 -124.7 295.5 -93.9 298.1 -68C300.6 -42.1 316.6 -21.1 332.5 0L0 0Z" fill="#8f7f6c"></path><path d="M0 -166.2C11.5 -159.9 23.1 -153.6 34.2 -150C45.4 -146.5 56.3 -145.7 69.5 -144.3C82.7 -142.9 98.3 -140.9 103.7 -130C109 -119 104.1 -99.1 111.5 -88.9C118.9 -78.7 138.8 -78.2 146 -70.3C153.2 -62.4 147.8 -47 149 -34C150.3 -21.1 158.3 -10.5 166.3 0L0 0Z" fill="#888277"></path></g></svg>